<?xml version="1.0" encoding="UTF-8" standalone="no"?>
<svg
   xmlns:dc="http://purl.org/dc/elements/1.1/"
   xmlns:cc="http://creativecommons.org/ns#"
   xmlns:rdf="http://www.w3.org/1999/02/22-rdf-syntax-ns#"
   xmlns:svg="http://www.w3.org/2000/svg"
   xmlns="http://www.w3.org/2000/svg"
   xmlns:sodipodi="http://sodipodi.sourceforge.net/DTD/sodipodi-0.dtd"
   xmlns:inkscape="http://www.inkscape.org/namespaces/inkscape"
   inkscape:version="1.0 (4035a4fb49, 2020-05-01)"
   height="32"
   width="32"
   sodipodi:docname="logo.svg"
   version="1.1"
   viewBox="0 0 32 32"
   id="Layer_1">
  <metadata
     id="metadata46">
    <rdf:RDF>
      <cc:Work
         rdf:about="">
        <dc:format>image/svg+xml</dc:format>
        <dc:type
           rdf:resource="http://purl.org/dc/dcmitype/StillImage" />
        <dc:title></dc:title>
      </cc:Work>
    </rdf:RDF>
  </metadata>
  <defs
     id="defs44" />
  <sodipodi:namedview
     inkscape:current-layer="Layer_1"
     inkscape:window-maximized="0"
     inkscape:window-y="0"
     inkscape:window-x="0"
     inkscape:cy="16"
     inkscape:cx="15.070968"
     inkscape:zoom="19.375"
     scale-x="1"
     showgrid="false"
     id="namedview42"
     inkscape:window-height="933"
     inkscape:window-width="1604"
     inkscape:pageshadow="2"
     inkscape:pageopacity="0"
     guidetolerance="10"
     gridtolerance="10"
     objecttolerance="10"
     borderopacity="1"
     bordercolor="#666666"
     pagecolor="#ffffff" />
  <path
     id="path29"
     d="m 15,10.5 h 12 c 1.1,0 2,0.9 2,2 v 7 c 0,1.1 -0.9,2 -2,2 h -1 v 3 l -4,-3 h -7 c -1.1,0 -2,-0.9 -2,-2 v -7 c 0,-1.1 0.9,-2 2,-2 z"
     fill="#a3d86b" />
  <path
     id="path31"
     d="m 13,12.5 c 0,-1.1 0.9,-2 2,-2 h 3 v -1 c 0,-1.1 -0.9,-2 -2,-2 H 4 c -1.1,0 -2,0.9 -2,2 v 7 c 0,1.1 0.9,2 2,2 h 1 v 3 l 4,-3 h 4 z"
     fill="#67acd5" />
  <path
     id="path33"
     d="m 26,25 c -0.1,0 -0.2,0 -0.3,-0.1 L 21.8,22 H 15 c -1.4,0 -2.5,-1.1 -2.5,-2.5 v -7 C 12.5,11.1 13.6,10 15,10 h 12 c 1.4,0 2.5,1.1 2.5,2.5 v 7 c 0,1.4 -1.1,2.5 -2.5,2.5 h -0.5 v 2.5 c 0,0.2 -0.1,0.4 -0.3,0.4 C 26.1,25 26.1,25 26,25 Z M 15,11 c -0.8,0 -1.5,0.7 -1.5,1.5 v 7 c 0,0.8 0.7,1.5 1.5,1.5 h 7 c 0.1,0 0.2,0 0.3,0.1 l 3.2,2.4 v -2 C 25.5,21.2 25.7,21 26,21 h 1 c 0.8,0 1.5,-0.7 1.5,-1.5 v -7 C 28.5,11.7 27.8,11 27,11 Z"
     fill="#40455a" />
  <path
     id="path35"
     d="M 5,22 C 4.9,22 4.8,22 4.8,21.9 4.6,21.8 4.5,21.6 4.5,21.5 V 19 H 4 C 2.6,19 1.5,17.9 1.5,16.5 v -7 C 1.5,8.1 2.6,7 4,7 h 12 c 1.4,0 2.5,1.1 2.5,2.5 v 1 c 0,0.3 -0.2,0.5 -0.5,0.5 h -3 c -0.8,0 -1.5,0.7 -1.5,1.5 v 6 C 13.5,18.8 13.3,19 13,19 H 9.2 L 5.3,21.9 C 5.2,22 5.1,22 5,22 Z M 4,8 C 3.2,8 2.5,8.7 2.5,9.5 v 7 C 2.5,17.3 3.2,18 4,18 h 1 c 0.3,0 0.5,0.2 0.5,0.5 v 2 L 8.7,18.1 C 8.8,18 8.9,18 9,18 h 3.5 V 12.5 C 12.5,11.1 13.6,10 15,10 h 2.5 V 9.5 C 17.5,8.7 16.8,8 16,8 Z"
     fill="#40455a" />
  <path
     id="path37"
     d="M 9,16 H 8 C 7.2,16 6.5,15.3 6.5,14.5 v -3 C 6.5,10.7 7.2,10 8,10 h 1 c 0.8,0 1.5,0.7 1.5,1.5 v 3 C 10.5,15.3 9.8,16 9,16 Z M 8,11 c -0.3,0 -0.5,0.2 -0.5,0.5 v 3 C 7.5,14.8 7.7,15 8,15 h 1 c 0.3,0 0.5,-0.2 0.5,-0.5 v -3 C 9.5,11.2 9.3,11 9,11 Z m 15,8 c -0.3,0 -0.5,-0.2 -0.5,-0.5 v -4 C 22.5,14.2 22.3,14 22,14 h -2 c -0.3,0 -0.5,0.2 -0.5,0.5 v 4 c 0,0.3 -0.2,0.5 -0.5,0.5 -0.3,0 -0.5,-0.2 -0.5,-0.5 v -4 C 18.5,13.7 19.2,13 20,13 h 2 c 0.8,0 1.5,0.7 1.5,1.5 v 4 c 0,0.3 -0.2,0.5 -0.5,0.5 z"
     fill="#40455a" />
  <path
     id="path39"
     d="m 22.5,17 h -3 C 19.2,17 19,16.8 19,16.5 19,16.2 19.2,16 19.5,16 h 3 c 0.3,0 0.5,0.2 0.5,0.5 0,0.3 -0.2,0.5 -0.5,0.5 z M 11,16 c -0.1,0 -0.3,0 -0.4,-0.1 l -2,-2 C 8.4,13.7 8.4,13.4 8.6,13.2 8.8,13 9.1,13 9.3,13.2 l 2,2 c 0.2,0.2 0.2,0.5 0,0.7 0,0 -0.2,0.1 -0.3,0.1 z"
     fill="#40455a" />
</svg>
